<svg id="SvgjsSvg1006" width="5000px" height="2188.7277122997884px" xmlns="http://www.w3.org/2000/svg" version="1.1" xmlns:xlink="http://www.w3.org/1999/xlink" xmlns:svgjs="http://svgjs.com/svgjs" viewBox="0 0 413.625 181.0625"><defs id="SvgjsDefs1007"></defs><g id="SvgjsG1009" transform="rotate(0 206.8046875 58.5)"><svg height="117" viewBox="0 0 423.0660095214844 512" xmlns="http://www.w3.org/2000/svg" version="1.1" xmlns:xlink="http://www.w3.org/1999/xlink" xmlns:svgjs="http://svgjs.com/svgjs" preserveAspectRatio="none" width="96.671875" x="158.46875" y="0"><g><svg data-color="1" xmlns="http://www.w3.org/2000/svg" xmlns:xlink="http://www.w3.org/1999/xlink" version="1.1" x="0px" y="0px" viewBox="44.46699905395508 0 423.0660095214844 512" enable-background="new 0 0 512 512" xml:space="preserve" width="423.0660095214844" height="512" fill="#71db77"><g><path d="M256,0C139.167,0,44.467,94.708,44.467,211.533C44.467,372.184,256,512,256,512s211.533-139.816,211.533-300.467   C467.533,94.708,372.833,0,256,0z M256,375.941c-90.8,0-164.4-73.6-164.4-164.408c0-90.8,73.601-164.408,164.4-164.408   s164.417,73.608,164.417,164.408C420.417,302.342,346.8,375.941,256,375.941z"></path><path d="M343.649,186.783c-5.416,0-9.808,4.4-9.808,9.817v49.067c0,5.417,4.392,9.816,9.808,9.816c5.426,0,9.817-4.4,9.817-9.816   V196.6C353.467,191.184,349.075,186.783,343.649,186.783z"></path><path d="M314.208,167.167c-5.416,0-9.809,4.383-9.809,9.8V265.3c0,5.417,4.393,9.8,9.809,9.8c5.426,0,9.816-4.383,9.816-9.8   v-88.333C324.024,171.55,319.634,167.167,314.208,167.167z"></path><path d="M167.008,186.783c-5.417,0-9.808,4.4-9.808,9.817v49.067c0,5.417,4.392,9.816,9.808,9.816c5.425,0,9.817-4.4,9.817-9.816   V196.6C176.825,191.184,172.433,186.783,167.008,186.783z"></path><path d="M196.45,167.167c-5.417,0-9.809,4.383-9.809,9.8V265.3c0,5.417,4.392,9.8,9.809,9.8c5.425,0,9.816-4.383,9.816-9.8v-88.333   C206.267,171.55,201.875,167.167,196.45,167.167z"></path><rect x="216.075" y="206.417" width="78.508" height="29.433"></rect></g></svg></g><defs id="SvgjsDefs1008"></defs></svg></g><g id="SvgjsG1011" transform="rotate(0 206.8125 164.03125)"><svg xmlns="http://www.w3.org/2000/svg" xmlns:xlink="http://www.w3.org/1999/xlink" width="413.625" viewBox="2.9100000858306885 10.91333293914795 413.6399841308594 28.066665649414062" overflow="visible" style="overflow: visible;" transform="" version="1.1" xmlns:svgjs="http://svgjs.com/svgjs" preserveAspectRatio="none" height="28.0625" x="0" y="150" fill="#000000" stroke="none"><path stroke="none" fill="#71db77" d="M7.86 11.29L7.86 38.60L2.91 38.60L2.91 11.29L7.86 11.29ZM40.94 11.29L40.94 36.49L40.94 36.49Q40.94 37.02 40.74 37.48L40.74 37.48L40.74 37.48Q40.54 37.93 40.21 38.27L40.21 38.27L40.21 38.27Q39.88 38.60 39.42 38.79L39.42 38.79L39.42 38.79Q38.96 38.98 38.45 38.98L38.45 38.98L38.45 38.98Q37.99 38.98 37.52 38.81L37.52 38.81L37.52 38.81Q37.06 38.64 36.70 38.26L36.70 38.26L18.60 19.37L18.60 38.60L13.65 38.60L13.65 13.41L13.65 13.41Q13.65 12.64 14.08 12.03L14.08 12.03L14.08 12.03Q14.51 11.41 15.18 11.10L15.18 11.10L15.18 11.10Q15.88 10.82 16.62 10.96L16.62 10.96L16.62 10.96Q17.37 11.10 17.90 11.65L17.90 11.65L35.99 30.53L35.99 11.29L40.94 11.29ZM71.37 11.29L71.37 16.24L60.46 16.24L60.46 38.60L55.51 38.60L55.51 16.24L44.58 16.24L44.58 11.29L71.37 11.29ZM101.77 11.29L101.77 36.11L101.77 36.11Q101.77 36.64 101.58 37.10L101.58 37.10L101.58 37.10Q101.38 37.55 101.04 37.89L101.04 37.89L101.04 37.89Q100.70 38.22 100.24 38.41L100.24 38.41L100.24 38.41Q99.79 38.60 99.27 38.60L99.27 38.60L88.11 38.60L88.11 38.60Q86.53 38.60 84.91 38.26L84.91 38.26L84.91 38.26Q83.29 37.91 81.78 37.20L81.78 37.20L81.78 37.20Q80.27 36.49 78.93 35.38L78.93 35.38L78.93 35.38Q77.60 34.28 76.60 32.76L76.60 32.76L76.60 32.76Q75.60 31.25 75.03 29.30L75.03 29.30L75.03 29.30Q74.46 27.35 74.46 24.95L74.46 24.95L74.46 11.29L79.41 11.29L79.41 24.95L79.41 24.95Q79.41 27.04 79.99 28.49L79.99 28.49L79.99 28.49Q80.57 29.94 81.47 30.91L81.47 30.91L81.47 30.91Q82.36 31.88 83.43 32.43L83.43 32.43L83.43 32.43Q84.49 32.98 85.46 33.25L85.46 33.25L85.46 33.25Q86.42 33.52 87.15 33.58L87.15 33.58L87.15 33.58Q87.88 33.65 88.11 33.65L88.11 33.65L96.81 33.65L96.81 11.29L101.77 11.29ZM112.51 11.29L112.51 38.60L107.55 38.60L107.55 11.29L112.51 11.29ZM142.97 11.29L142.97 16.24L132.06 16.24L132.06 38.60L127.11 38.60L127.11 16.24L116.18 16.24L116.18 11.29L142.97 11.29ZM151.60 11.29L151.60 38.60L146.65 38.60L146.65 11.29L151.60 11.29ZM179.19 11.29L184.72 11.29L171.79 37.63L171.79 37.63Q171.48 38.24 170.88 38.61L170.88 38.61L170.88 38.61Q170.28 38.98 169.56 38.98L169.56 38.98L169.56 38.98Q168.85 38.98 168.25 38.61L168.25 38.61L168.25 38.61Q167.65 38.24 167.33 37.63L167.33 37.63L154.42 11.29L159.96 11.29L169.56 30.96L179.19 11.29ZM209.97 22.45L209.97 27.44L194.33 27.44L194.33 22.45L209.97 22.45ZM212.20 33.65L212.20 38.60L194.33 38.60L194.33 38.60Q193.31 38.60 192.09 38.24L192.09 38.24L192.09 38.24Q190.87 37.88 189.83 37.05L189.83 37.05L189.83 37.05Q188.79 36.22 188.10 34.90L188.10 34.90L188.10 34.90Q187.40 33.57 187.40 31.65L187.40 31.65L187.40 13.79L187.40 13.79Q187.40 13.27 187.59 12.82L187.59 12.82L187.59 12.82Q187.78 12.36 188.12 12.02L188.12 12.02L188.12 12.02Q188.45 11.67 188.91 11.48L188.91 11.48L188.91 11.48Q189.36 11.29 189.90 11.29L189.90 11.29L212.20 11.29L212.20 16.24L192.35 16.24L192.35 31.65L192.35 31.65Q192.35 32.62 192.87 33.13L192.87 33.13L192.87 33.13Q193.38 33.65 194.37 33.65L194.37 33.65L212.20 33.65ZM252.24 22.45L252.24 27.44L236.59 27.44L236.59 22.45L252.24 22.45ZM254.45 11.29L254.45 16.24L234.61 16.24L234.61 38.60L229.66 38.60L229.66 13.79L229.66 13.79Q229.66 13.27 229.85 12.82L229.85 12.82L229.85 12.82Q230.04 12.36 230.37 12.02L230.37 12.02L230.37 12.02Q230.71 11.67 231.16 11.48L231.16 11.48L231.16 11.48Q231.62 11.29 232.15 11.29L232.15 11.29L254.45 11.29ZM263.44 11.29L263.44 38.60L258.49 38.60L258.49 11.29L263.44 11.29ZM293.91 11.29L293.91 16.24L283.00 16.24L283.00 38.60L278.05 38.60L278.05 16.24L267.12 16.24L267.12 11.29L293.91 11.29ZM324.83 11.29L324.83 36.49L324.83 36.49Q324.83 37.02 324.64 37.48L324.64 37.48L324.64 37.48Q324.44 37.93 324.10 38.27L324.10 38.27L324.10 38.27Q323.77 38.60 323.31 38.79L323.31 38.79L323.31 38.79Q322.85 38.98 322.34 38.98L322.34 38.98L322.34 38.98Q321.88 38.98 321.42 38.81L321.42 38.81L321.42 38.81Q320.95 38.64 320.59 38.26L320.59 38.26L302.50 19.37L302.50 38.60L297.55 38.60L297.55 13.41L297.55 13.41Q297.55 12.64 297.97 12.03L297.97 12.03L297.97 12.03Q298.40 11.41 299.07 11.10L299.07 11.10L299.07 11.10Q299.77 10.82 300.52 10.96L300.52 10.96L300.52 10.96Q301.26 11.10 301.79 11.65L301.79 11.65L319.88 30.53L319.88 11.29L324.83 11.29ZM353.04 22.45L353.04 27.44L337.40 27.44L337.40 22.45L353.04 22.45ZM355.27 33.65L355.27 38.60L337.40 38.60L337.40 38.60Q336.38 38.60 335.16 38.24L335.16 38.24L335.16 38.24Q333.94 37.88 332.90 37.05L332.90 37.05L332.90 37.05Q331.86 36.22 331.17 34.90L331.17 34.90L331.17 34.90Q330.47 33.57 330.47 31.65L330.47 31.65L330.47 13.79L330.47 13.79Q330.47 13.27 330.66 12.82L330.66 12.82L330.66 12.82Q330.85 12.36 331.19 12.02L331.19 12.02L331.19 12.02Q331.52 11.67 331.98 11.48L331.98 11.48L331.98 11.48Q332.43 11.29 332.97 11.29L332.97 11.29L355.27 11.29L355.27 16.24L335.42 16.24L335.42 31.65L335.42 31.65Q335.42 32.62 335.94 33.13L335.94 33.13L335.94 33.13Q336.45 33.65 337.44 33.65L337.44 33.65L355.27 33.65ZM386.19 30.56L386.19 30.56L386.19 30.56Q386.19 32.03 385.82 33.20L385.82 33.20L385.82 33.20Q385.45 34.37 384.84 35.27L384.84 35.27L384.84 35.27Q384.23 36.16 383.41 36.79L383.41 36.79L383.41 36.79Q382.59 37.42 381.72 37.82L381.72 37.82L381.72 37.82Q380.84 38.22 379.94 38.41L379.94 38.41L379.94 38.41Q379.03 38.60 378.23 38.60L378.23 38.60L359.13 38.60L359.13 33.65L378.23 33.65L378.23 33.65Q379.66 33.65 380.45 32.81L380.45 32.81L380.45 32.81Q381.24 31.97 381.24 30.56L381.24 30.56L381.24 30.56Q381.24 29.88 381.03 29.31L381.03 29.31L381.03 29.31Q380.82 28.74 380.43 28.32L380.43 28.32L380.43 28.32Q380.04 27.90 379.48 27.67L379.48 27.67L379.48 27.67Q378.92 27.44 378.23 27.44L378.23 27.44L366.84 27.44L366.84 27.44Q365.64 27.44 364.25 27.01L364.25 27.01L364.25 27.01Q362.86 26.58 361.67 25.63L361.67 25.63L361.67 25.63Q360.48 24.68 359.69 23.14L359.69 23.14L359.69 23.14Q358.90 21.59 358.90 19.37L358.90 19.37L358.90 19.37Q358.90 17.14 359.69 15.61L359.69 15.61L359.69 15.61Q360.48 14.07 361.67 13.11L361.67 13.11L361.67 13.11Q362.86 12.15 364.25 11.72L364.25 11.72L364.25 11.72Q365.64 11.29 366.84 11.29L366.84 11.29L383.70 11.29L383.70 16.24L366.84 16.24L366.84 16.24Q365.43 16.24 364.64 17.10L364.64 17.10L364.64 17.10Q363.85 17.96 363.85 19.37L363.85 19.37L363.85 19.37Q363.85 20.79 364.64 21.62L364.64 21.62L364.64 21.62Q365.43 22.45 366.84 22.45L366.84 22.45L378.23 22.45L378.27 22.45L378.27 22.45Q379.07 22.47 379.96 22.67L379.96 22.67L379.96 22.67Q380.86 22.87 381.74 23.29L381.74 23.29L381.74 23.29Q382.63 23.71 383.43 24.35L383.43 24.35L383.43 24.35Q384.23 24.98 384.85 25.88L384.85 25.88L384.85 25.88Q385.47 26.77 385.83 27.94L385.83 27.94L385.83 27.94Q386.19 29.10 386.19 30.56ZM416.55 30.56L416.55 30.56L416.55 30.56Q416.55 32.03 416.17 33.20L416.17 33.20L416.17 33.20Q415.80 34.37 415.19 35.27L415.19 35.27L415.19 35.27Q414.58 36.16 413.77 36.79L413.77 36.79L413.77 36.79Q412.95 37.42 412.07 37.82L412.07 37.82L412.07 37.82Q411.19 38.22 410.29 38.41L410.29 38.41L410.29 38.41Q409.39 38.60 408.59 38.60L408.59 38.60L389.49 38.60L389.49 33.65L408.59 33.65L408.59 33.65Q410.01 33.65 410.80 32.81L410.80 32.81L410.80 32.81Q411.59 31.97 411.59 30.56L411.59 30.56L411.59 30.56Q411.59 29.88 411.39 29.31L411.39 29.31L411.39 29.31Q411.18 28.74 410.79 28.32L410.79 28.32L410.79 28.32Q410.40 27.90 409.83 27.67L409.83 27.67L409.83 27.67Q409.27 27.44 408.59 27.44L408.59 27.44L397.20 27.44L397.20 27.44Q396.00 27.44 394.61 27.01L394.61 27.01L394.61 27.01Q393.22 26.58 392.03 25.63L392.03 25.63L392.03 25.63Q390.84 24.68 390.05 23.14L390.05 23.14L390.05 23.14Q389.26 21.59 389.26 19.37L389.26 19.37L389.26 19.37Q389.26 17.14 390.05 15.61L390.05 15.61L390.05 15.61Q390.84 14.07 392.03 13.11L392.03 13.11L392.03 13.11Q393.22 12.15 394.61 11.72L394.61 11.72L394.61 11.72Q396.00 11.29 397.20 11.29L397.20 11.29L414.05 11.29L414.05 16.24L397.20 16.24L397.20 16.24Q395.79 16.24 395.00 17.10L395.00 17.10L395.00 17.10Q394.21 17.96 394.21 19.37L394.21 19.37L394.21 19.37Q394.21 20.79 395.00 21.62L395.00 21.62L395.00 21.62Q395.79 22.45 397.20 22.45L397.20 22.45L408.59 22.45L408.62 22.45L408.62 22.45Q409.42 22.47 410.32 22.67L410.32 22.67L410.32 22.67Q411.21 22.87 412.10 23.29L412.10 23.29L412.10 23.29Q412.98 23.71 413.78 24.35L413.78 24.35L413.78 24.35Q414.58 24.98 415.20 25.88L415.20 25.88L415.20 25.88Q415.82 26.77 416.18 27.94L416.18 27.94L416.18 27.94Q416.55 29.10 416.55 30.56Z" transform="rotate(0 209.72999215126038 24.94666576385498)"></path><defs id="SvgjsDefs1010"></defs></svg></g></svg>